<svg width="10" height="18" viewBox="0 0 10 18" fill="none" xmlns="http://www.w3.org/2000/svg">
<path d="M6.64114 4.78746C6.63081 5.39072 6.63897 5.99344 6.63897 6.61792C6.72492 6.62173 6.79618 6.62825 6.86798 6.62825C7.57351 6.6288 8.27958 6.62771 8.98566 6.6288C9.41322 6.62989 9.51875 6.73487 9.51929 7.15482C9.52038 7.96261 9.52092 8.77041 9.51929 9.5782C9.5182 9.95245 9.42518 10.0471 9.04875 10.0487C8.32908 10.052 7.60995 10.0498 6.89028 10.0498H6.64006V16.6765C6.64006 17.2754 6.58131 17.333 5.97261 17.333C5.19854 17.333 4.42501 17.3336 3.65149 17.3325C3.22175 17.3319 3.12221 17.2335 3.12166 16.807C3.12112 14.6556 3.12166 12.5037 3.12166 10.3517V10.0874C3.03898 10.0825 2.96772 10.0748 2.89646 10.0748C2.30625 10.0738 1.7155 10.0754 1.12529 10.0738C0.715684 10.0721 0.616681 9.97693 0.615593 9.57113C0.612329 8.77694 0.612873 7.98274 0.615049 7.18854C0.616137 6.76642 0.712964 6.67177 1.13019 6.67123C1.71387 6.67069 2.29755 6.67123 2.88123 6.67123H3.12166C3.12166 6.57059 3.12057 6.49118 3.12166 6.41176C3.1358 5.63823 3.10806 4.86144 3.17334 4.09281C3.3387 2.15791 4.82646 0.75719 6.77061 0.684298C7.58384 0.653836 8.39871 0.671243 9.21358 0.673419C9.48284 0.674507 9.59816 0.790916 9.5998 1.06181C9.60415 1.86961 9.60415 2.6774 9.5998 3.4852C9.59816 3.7599 9.48502 3.8687 9.19019 3.87577C8.64078 3.88882 8.09082 3.88937 7.54141 3.89753C6.90388 3.90732 6.65257 4.1483 6.64114 4.78746Z" fill="#555555"/>
</svg>
