<svg width="21" height="20" viewBox="0 0 21 20" fill="none" xmlns="http://www.w3.org/2000/svg">
<path d="M19.1096 6.30963C19.0982 4.51331 18.2972 3.15028 16.7475 2.24295C16.0656 1.8435 15.3119 1.67067 14.5216 1.67027C12.0266 1.66823 9.53169 1.66211 7.03674 1.6719C5.00605 1.67964 3.3096 2.91917 2.66721 4.85489C2.57265 5.14021 2.538 5.44591 2.47604 5.74224C2.46504 5.79482 2.45607 5.84781 2.44629 5.90039V14.1022C2.49113 14.3517 2.51558 14.6068 2.58365 14.8498C3.1005 16.6946 4.29926 17.8277 6.16813 18.25C6.33566 18.2879 6.50808 18.3059 6.67805 18.3332H14.8815C15.1314 18.2883 15.3865 18.2639 15.6299 18.1958C17.4727 17.6798 18.6091 16.4831 19.0248 14.6162C19.0917 14.3174 19.1088 14.0028 19.1096 13.6954C19.1161 11.2335 19.1251 8.77157 19.1096 6.30963ZM10.7871 14.5685C8.2779 14.5828 6.21052 12.5187 6.21175 10.0005C6.21297 7.48476 8.24651 5.44836 10.7724 5.43409C13.2817 5.41983 15.349 7.48353 15.3478 10.0017C15.3466 12.5175 13.313 14.5539 10.7871 14.5685ZM15.6234 6.54645C14.8693 6.544 14.2351 5.90895 14.2355 5.15651C14.2355 4.40163 14.8677 3.77229 15.6254 3.7731C16.3872 3.77351 17.0112 4.39837 17.0092 5.15896C17.0076 5.91711 16.3766 6.54889 15.6234 6.54645Z" fill="#555555"/>
<path d="M2.44629 14.1025C2.49113 14.352 2.51558 14.6072 2.58365 14.8501C3.1005 16.6949 4.29926 17.8281 6.16813 18.2503C6.33566 18.2882 6.50808 18.3062 6.67805 18.3335C5.26733 18.3335 3.8566 18.3335 2.44629 18.3335C2.44629 16.9232 2.44629 15.5129 2.44629 14.1025Z" fill="white"/>
<path d="M14.3636 10.0091C14.3571 11.9909 12.7397 13.5973 10.7645 13.5842C8.78597 13.5712 7.18979 11.9652 7.19631 9.99365C7.20283 8.01228 8.82062 6.40509 10.7959 6.41854C12.7744 6.43158 14.3702 8.03755 14.3636 10.0091Z" fill="#555555"/>
<path d="M16.0243 5.15518C16.0251 5.37447 15.8397 5.56116 15.6228 5.55993C15.408 5.55871 15.2185 5.3655 15.2217 5.1511C15.2254 4.94037 15.4064 4.76021 15.6183 4.75736C15.8405 4.7545 16.0235 4.93385 16.0243 5.15518Z" fill="#555555"/>
</svg>
