<svg width="21" height="20" viewBox="0 0 21 20" fill="none" xmlns="http://www.w3.org/2000/svg">
<path d="M17.2167 7.27943C17.2215 8.55307 16.992 9.78284 16.4297 10.9336C15.8189 12.183 14.9138 13.1428 13.5882 13.6281C12.5784 13.9986 11.5464 14.0897 10.5367 13.6065C10.2708 13.4796 10.0298 13.3014 9.76523 13.1387C9.67951 13.4681 9.58569 13.8096 9.50267 14.1538C9.27724 15.0927 9.0059 16.016 8.58743 16.8908C8.3809 17.3221 8.15884 17.7446 7.80246 18.076C7.73564 18.1381 7.65937 18.1921 7.5804 18.2393C7.27734 18.4196 6.97631 18.3359 6.8123 18.0254C6.64559 17.7095 6.61319 17.3639 6.60374 17.0157C6.57269 15.8237 6.78935 14.6655 7.07216 13.514C7.39141 12.2154 7.69244 10.9114 7.9955 9.6087C8.01575 9.52095 8.00562 9.41633 7.97795 9.32927C7.64857 8.28916 7.62292 7.2693 8.19056 6.29737C8.50306 5.7628 8.95258 5.40103 9.58366 5.30181C10.4739 5.16142 11.2596 5.8033 11.325 6.70234C11.373 7.35232 11.1894 7.95776 11.0186 8.56792C10.86 9.13083 10.6879 9.68969 10.53 10.2526C10.4422 10.5651 10.4503 10.8769 10.617 11.1665C10.9012 11.6579 11.3561 11.8178 11.8886 11.7699C12.5136 11.7146 12.9706 11.3568 13.3384 10.8756C13.8089 10.26 14.0694 9.55133 14.226 8.80145C14.3839 8.04348 14.467 7.27875 14.3549 6.50728C14.1747 5.26199 13.4795 4.41762 12.2902 4.03155C11.0902 3.6421 9.89077 3.69744 8.74875 4.26508C7.56488 4.85297 6.86495 5.833 6.57674 7.10934C6.43095 7.75797 6.40395 8.41403 6.67124 9.04309C6.76505 9.2638 6.90274 9.47168 7.04921 9.66404C7.22402 9.89285 7.29489 10.1271 7.21727 10.4072C7.1518 10.6421 7.09983 10.8803 7.03234 11.1145C6.90004 11.5775 6.56932 11.7294 6.13195 11.5343C5.26395 11.1476 4.72399 10.4625 4.42499 9.5871C3.93767 8.16227 4.02271 6.75229 4.67337 5.39765C5.62978 3.40789 7.25035 2.26856 9.38793 1.82984C9.72068 1.76167 10.0636 1.73872 10.4017 1.6935C10.4382 1.68878 10.4739 1.67595 10.5097 1.6665H11.4216C11.6038 1.6881 11.786 1.70768 11.9683 1.73197C13.5214 1.93446 14.8544 2.57567 15.8871 3.76764C16.7551 4.76995 17.2127 5.94572 17.2167 7.27943Z" fill="#FF782D"/>
</svg>
