<svg width="21" height="20" viewBox="0 0 21 20" fill="none" xmlns="http://www.w3.org/2000/svg">
<path d="M17.7657 16.9613C15.9102 14.2539 14.0531 11.5473 12.1967 8.84044C12.1725 8.80518 12.1502 8.76847 12.12 8.72163C12.4452 8.34258 12.7687 7.96515 13.0926 7.58791C14.7759 5.62737 16.4594 3.66665 18.1427 1.70593C18.1532 1.69363 18.1615 1.67971 18.1709 1.6665H16.7414C14.9942 3.70101 13.2469 5.7357 11.4719 7.80257C11.4506 7.76405 11.4354 7.73096 11.4151 7.70148C10.0521 5.71327 8.68869 3.72542 7.32567 1.73721C7.31066 1.71515 7.29999 1.69019 7.28715 1.6665H2.44629C2.48825 1.73522 2.52695 1.80612 2.57234 1.87231C4.61824 4.85661 6.66468 7.84055 8.71112 10.8247C8.73246 10.8558 8.75289 10.8876 8.78273 10.9326C8.61654 11.1276 8.44944 11.3245 8.28107 11.5206C6.37858 13.7361 4.47591 15.9514 2.5736 18.1672C2.52839 18.22 2.48861 18.2777 2.44629 18.3332H3.87587C4.52329 17.5756 5.16945 16.817 5.81814 16.0605C6.97139 14.7156 8.12627 13.3717 9.28042 12.0277C9.32256 11.9785 9.36596 11.9305 9.41623 11.8732C9.44878 11.9126 9.47772 11.943 9.50123 11.9772C10.9321 14.0632 12.3626 16.1495 13.7929 18.2361C13.814 18.267 13.831 18.3008 13.85 18.3332H18.6907C18.3825 17.8758 18.0774 17.4163 17.7657 16.9613ZM16.5473 17.2971C15.9303 17.2977 15.3132 17.2944 14.6962 17.3002C14.5813 17.3011 14.5106 17.2684 14.4435 17.1723C11.1294 12.4176 7.8125 7.66441 4.49617 2.91108C4.4656 2.86731 4.43775 2.82156 4.38893 2.74669C4.99421 2.74669 5.56785 2.76948 6.1386 2.73801C6.47624 2.71938 6.66233 2.8382 6.85348 3.11344C10.0919 7.77581 13.3431 12.4293 16.5914 17.0848C16.6336 17.1452 16.6743 17.2065 16.7296 17.2875C16.6502 17.2919 16.5988 17.2969 16.5473 17.2971Z" fill="#555555"/>
</svg>
