<svg width="21" height="20" viewBox="0 0 21 20" fill="none" xmlns="http://www.w3.org/2000/svg">
<path d="M19.6483 5.72938C19.4479 4.62192 18.7711 3.91099 17.7129 3.71745C17.2762 3.63728 16.8316 3.57887 16.3881 3.55883C14.5073 3.47379 12.6256 3.40708 10.7442 3.3335C10.7436 3.35297 10.7431 3.37244 10.7425 3.3919C10.3099 3.3919 9.87697 3.38561 9.44463 3.39305C7.65087 3.42311 5.85681 3.44287 4.0725 3.66562C2.96274 3.80391 2.19398 4.46387 1.96292 5.56103C1.8338 6.17375 1.76336 6.80192 1.7124 7.42695C1.60331 8.76375 1.5764 10.1049 1.67146 11.4437C1.73044 12.2717 1.80602 13.1023 1.94374 13.9203C2.12441 14.9917 2.86281 15.7 3.90243 15.8544C4.518 15.9457 5.13959 16.0236 5.7609 16.0439C7.66805 16.1057 9.57634 16.163 11.4843 16.1725C13.3863 16.1822 15.2892 16.137 17.1837 15.938C17.6722 15.8864 18.1535 15.8085 18.5804 15.5351C19.2864 15.083 19.6077 14.4036 19.6847 13.6056C19.7886 12.5259 19.894 11.4437 19.9295 10.3605C19.9808 8.81071 19.9252 7.26146 19.6483 5.72938ZM8.96706 12.5185V7.04558C10.5555 7.95864 12.1274 8.86225 13.7271 9.78189C12.1297 10.7004 10.5581 11.6037 8.96706 12.5185Z" fill="#555555"/>
</svg>
